<svg width="23" height="20" viewBox="0 0 23 20" fill="none" xmlns="http://www.w3.org/2000/svg">
<mask id="path-1-outside-1_1_9145" maskUnits="userSpaceOnUse" x="0" y="0" width="23" height="20" fill="black">
<rect fill="white" width="23" height="20"/>
<path fill-rule="evenodd" clip-rule="evenodd" d="M14.9499 1.63894C14.4938 1.22764 13.9015 1 13.2873 1H9.92349C9.30948 1 8.71724 1.22753 8.26117 1.63863L7.60096 2.23376C7.15226 2.63822 6.5696 2.86207 5.96552 2.86207C3.22314 2.86207 1 5.08521 1 7.82759V14.0345C1 16.7769 3.22314 19 5.96552 19H17.1379C19.8803 19 22.1034 16.7769 22.1034 14.0345V7.82759C22.1034 5.08521 19.8803 2.86207 17.1379 2.86207L16.9603 2.85477C16.4893 2.816 16.0421 2.62382 15.6888 2.30517L14.9499 1.63894ZM9.92333 1.99295H13.2871C13.6556 1.99295 14.0111 2.12953 14.2847 2.37631L15.0235 3.04253C15.5378 3.50627 16.1898 3.78766 16.8787 3.84437L17.097 3.85418C19.3317 3.85501 21.1102 5.63352 21.1102 7.82743V14.0343C21.1102 16.2282 19.3317 18.0067 17.1378 18.0067H5.96536C3.77146 18.0067 1.99295 16.2282 1.99295 14.0343V7.82743C1.99295 5.69282 3.67662 3.95145 5.78841 3.85888L6.16083 3.84945C6.94002 3.80507 7.68315 3.4964 8.26572 2.97125L8.92594 2.37613C9.19958 2.12946 9.55492 1.99295 9.92333 1.99295ZM11.5517 5.34446C14.1798 5.34446 16.3103 7.47496 16.3103 10.1031C16.3103 12.7312 14.1798 14.8617 11.5517 14.8617C8.92359 14.8617 6.79309 12.7312 6.79309 10.1031C6.79309 7.47496 8.92359 5.34446 11.5517 5.34446ZM7.78632 10.1032C7.78632 8.02357 9.4722 6.33769 11.5518 6.33769C13.6315 6.33769 15.3174 8.02357 15.3174 10.1032C15.3174 12.1828 13.6315 13.8687 11.5518 13.8687C9.4722 13.8687 7.78632 12.1828 7.78632 10.1032Z"/>
</mask>
<path fill-rule="evenodd" clip-rule="evenodd" d="M14.9499 1.63894C14.4938 1.22764 13.9015 1 13.2873 1H9.92349C9.30948 1 8.71724 1.22753 8.26117 1.63863L7.60096 2.23376C7.15226 2.63822 6.5696 2.86207 5.96552 2.86207C3.22314 2.86207 1 5.08521 1 7.82759V14.0345C1 16.7769 3.22314 19 5.96552 19H17.1379C19.8803 19 22.1034 16.7769 22.1034 14.0345V7.82759C22.1034 5.08521 19.8803 2.86207 17.1379 2.86207L16.9603 2.85477C16.4893 2.816 16.0421 2.62382 15.6888 2.30517L14.9499 1.63894ZM9.92333 1.99295H13.2871C13.6556 1.99295 14.0111 2.12953 14.2847 2.37631L15.0235 3.04253C15.5378 3.50627 16.1898 3.78766 16.8787 3.84437L17.097 3.85418C19.3317 3.85501 21.1102 5.63352 21.1102 7.82743V14.0343C21.1102 16.2282 19.3317 18.0067 17.1378 18.0067H5.96536C3.77146 18.0067 1.99295 16.2282 1.99295 14.0343V7.82743C1.99295 5.69282 3.67662 3.95145 5.78841 3.85888L6.16083 3.84945C6.94002 3.80507 7.68315 3.4964 8.26572 2.97125L8.92594 2.37613C9.19958 2.12946 9.55492 1.99295 9.92333 1.99295ZM11.5517 5.34446C14.1798 5.34446 16.3103 7.47496 16.3103 10.1031C16.3103 12.7312 14.1798 14.8617 11.5517 14.8617C8.92359 14.8617 6.79309 12.7312 6.79309 10.1031C6.79309 7.47496 8.92359 5.34446 11.5517 5.34446ZM7.78632 10.1032C7.78632 8.02357 9.4722 6.33769 11.5518 6.33769C13.6315 6.33769 15.3174 8.02357 15.3174 10.1032C15.3174 12.1828 13.6315 13.8687 11.5518 13.8687C9.4722 13.8687 7.78632 12.1828 7.78632 10.1032Z" fill="#1DAB61"/>
<path d="M14.9499 1.63894L15.2178 1.34188V1.34188L14.9499 1.63894ZM8.26117 1.63863L8.52899 1.93574L8.26117 1.63863ZM7.60096 2.23376L7.33314 1.93665L7.60096 2.23376ZM17.1379 2.86207L17.1215 3.26173L17.1297 3.26207H17.1379V2.86207ZM16.9603 2.85477L16.9275 3.25342L16.9357 3.2541L16.9439 3.25444L16.9603 2.85477ZM15.6888 2.30517L15.4209 2.60222V2.60223L15.6888 2.30517ZM14.2847 2.37631L14.0168 2.67337L14.0168 2.67337L14.2847 2.37631ZM15.0235 3.04253L15.2914 2.74547L15.2914 2.74547L15.0235 3.04253ZM16.8787 3.84437L16.8459 4.24302L16.8533 4.24363L16.8607 4.24397L16.8787 3.84437ZM17.097 3.85418L17.0791 4.25377L17.088 4.25417L17.0969 4.25418L17.097 3.85418ZM5.78841 3.85888L5.77828 3.45894L5.7709 3.45927L5.78841 3.85888ZM6.16083 3.84945L6.17097 4.24952L6.18358 4.24881L6.16083 3.84945ZM8.26572 2.97125L8.53354 3.26836V3.26836L8.26572 2.97125ZM8.92594 2.37613L8.65812 2.07902V2.07902L8.92594 2.37613ZM13.2873 1.4C13.8025 1.4 14.2994 1.59097 14.6821 1.936L15.2178 1.34188C14.6882 0.864318 14.0004 0.6 13.2873 0.6V1.4ZM9.92349 1.4H13.2873V0.6H9.92349V1.4ZM8.52899 1.93574C8.91158 1.59087 9.4084 1.4 9.92349 1.4V0.6C9.21055 0.6 8.52291 0.864182 7.99336 1.34152L8.52899 1.93574ZM7.86877 2.53087L8.52899 1.93574L7.99336 1.34152L7.33314 1.93665L7.86877 2.53087ZM5.96552 3.26207C6.66853 3.26207 7.3466 3.00157 7.86877 2.53087L7.33314 1.93665C6.95792 2.27488 6.47068 2.46207 5.96552 2.46207V3.26207ZM1.4 7.82759C1.4 5.30612 3.44405 3.26207 5.96552 3.26207V2.46207C3.00222 2.46207 0.6 4.86429 0.6 7.82759H1.4ZM1.4 14.0345V7.82759H0.6V14.0345H1.4ZM5.96552 18.6C3.44405 18.6 1.4 16.5559 1.4 14.0345H0.6C0.6 16.9978 3.00222 19.4 5.96552 19.4V18.6ZM17.1379 18.6H5.96552V19.4H17.1379V18.6ZM21.7034 14.0345C21.7034 16.5559 19.6594 18.6 17.1379 18.6V19.4C20.1012 19.4 22.5034 16.9978 22.5034 14.0345H21.7034ZM21.7034 7.82759V14.0345H22.5034V7.82759H21.7034ZM17.1379 3.26207C19.6594 3.26207 21.7034 5.30612 21.7034 7.82759H22.5034C22.5034 4.86429 20.1012 2.46207 17.1379 2.46207V3.26207ZM16.9439 3.25444L17.1215 3.26173L17.1543 2.46241L16.9768 2.45511L16.9439 3.25444ZM15.4209 2.60223C15.8396 2.97979 16.3695 3.20748 16.9275 3.25342L16.9932 2.45612C16.6092 2.42452 16.2447 2.26786 15.9566 2.00811L15.4209 2.60223ZM14.6821 1.936L15.4209 2.60222L15.9566 2.00811L15.2178 1.34188L14.6821 1.936ZM13.2871 1.59295H9.92333V2.39295H13.2871V1.59295ZM14.5526 2.07925C14.2054 1.76621 13.7546 1.59295 13.2871 1.59295V2.39295C13.5567 2.39295 13.8167 2.49286 14.0168 2.67337L14.5526 2.07925ZM15.2914 2.74547L14.5526 2.07925L14.0168 2.67337L14.7557 3.33959L15.2914 2.74547ZM16.9115 3.44572C16.3099 3.39619 15.7405 3.15046 15.2914 2.74547L14.7557 3.33959C15.3351 3.86209 16.0697 4.17912 16.8459 4.24302L16.9115 3.44572ZM17.115 3.45458L16.8967 3.44477L16.8607 4.24397L17.0791 4.25377L17.115 3.45458ZM21.5102 7.82743C21.5102 5.40992 19.5499 3.4551 17.0972 3.45418L17.0969 4.25418C19.1134 4.25493 20.7102 5.85712 20.7102 7.82743H21.5102ZM21.5102 14.0343V7.82743H20.7102V14.0343H21.5102ZM17.1378 18.4067C19.5526 18.4067 21.5102 16.4491 21.5102 14.0343H20.7102C20.7102 16.0073 19.1108 17.6067 17.1378 17.6067V18.4067ZM5.96536 18.4067H17.1378V17.6067H5.96536V18.4067ZM1.59295 14.0343C1.59295 16.4491 3.55054 18.4067 5.96536 18.4067V17.6067C3.99237 17.6067 2.39295 16.0073 2.39295 14.0343H1.59295ZM1.59295 7.82743V14.0343H2.39295V7.82743H1.59295ZM5.7709 3.45927C3.44615 3.56117 1.59295 5.47777 1.59295 7.82743H2.39295C2.39295 5.90787 3.90709 4.34173 5.80593 4.2585L5.7709 3.45927ZM6.15071 3.44958L5.77829 3.45901L5.79854 4.25876L6.17096 4.24932L6.15071 3.44958ZM7.99791 2.67414C7.48316 3.13814 6.82654 3.41089 6.13809 3.4501L6.18358 4.24881C7.05349 4.19926 7.88313 3.85465 8.53354 3.26836L7.99791 2.67414ZM8.65812 2.07902L7.99791 2.67414L8.53354 3.26836L9.19376 2.67323L8.65812 2.07902ZM9.92333 1.59295C9.456 1.59295 9.00525 1.76612 8.65812 2.07902L9.19376 2.67323C9.39392 2.4928 9.65385 2.39295 9.92333 2.39295V1.59295ZM16.7103 10.1031C16.7103 7.25405 14.4007 4.94446 11.5517 4.94446V5.74446C13.9589 5.74446 15.9103 7.69588 15.9103 10.1031H16.7103ZM11.5517 15.2617C14.4007 15.2617 16.7103 12.9521 16.7103 10.1031H15.9103C15.9103 12.5103 13.9589 14.4617 11.5517 14.4617V15.2617ZM6.39309 10.1031C6.39309 12.9521 8.70268 15.2617 11.5517 15.2617V14.4617C9.14451 14.4617 7.19309 12.5103 7.19309 10.1031H6.39309ZM11.5517 4.94446C8.70268 4.94446 6.39309 7.25405 6.39309 10.1031H7.19309C7.19309 7.69588 9.14451 5.74446 11.5517 5.74446V4.94446ZM11.5518 5.93769C9.25128 5.93769 7.38632 7.80265 7.38632 10.1032H8.18632C8.18632 8.24448 9.69311 6.73769 11.5518 6.73769V5.93769ZM15.7174 10.1032C15.7174 7.80265 13.8524 5.93769 11.5518 5.93769V6.73769C13.4106 6.73769 14.9174 8.24448 14.9174 10.1032H15.7174ZM11.5518 14.2687C13.8524 14.2687 15.7174 12.4038 15.7174 10.1032H14.9174C14.9174 11.9619 13.4106 13.4687 11.5518 13.4687V14.2687ZM7.38632 10.1032C7.38632 12.4038 9.25128 14.2687 11.5518 14.2687V13.4687C9.69311 13.4687 8.18632 11.9619 8.18632 10.1032H7.38632Z" fill="#1DAB61" mask="url(#path-1-outside-1_1_9145)"/>
</svg>
