<svg width="24" height="24" viewBox="0 0 24 24" fill="none" xmlns="http://www.w3.org/2000/svg">
<g clip-path="url(#clip0_1_9151)">
<g clip-path="url(#clip1_1_9151)">
<path fill-rule="evenodd" clip-rule="evenodd" d="M11.75 0C5.26038 0 0 5.26038 0 11.75C0 18.2396 5.26038 23.5 11.75 23.5C18.2396 23.5 23.5 18.2396 23.5 11.75C23.5 5.26038 18.2396 0 11.75 0ZM12.6538 8.13461C12.6538 7.8949 12.5586 7.665 12.3891 7.4955C12.2196 7.326 11.9897 7.23077 11.75 7.23077C11.5103 7.23077 11.2804 7.326 11.1109 7.4955C10.9414 7.665 10.8462 7.8949 10.8462 8.13461V10.8462H8.13461C7.8949 10.8462 7.665 10.9414 7.4955 11.1109C7.326 11.2804 7.23077 11.5103 7.23077 11.75C7.23077 11.9897 7.326 12.2196 7.4955 12.3891C7.665 12.5586 7.8949 12.6538 8.13461 12.6538H10.8462V15.3654C10.8462 15.6051 10.9414 15.835 11.1109 16.0045C11.2804 16.174 11.5103 16.2692 11.75 16.2692C11.9897 16.2692 12.2196 16.174 12.3891 16.0045C12.5586 15.835 12.6538 15.6051 12.6538 15.3654V12.6538H15.3654C15.6051 12.6538 15.835 12.5586 16.0045 12.3891C16.174 12.2196 16.2692 11.9897 16.2692 11.75C16.2692 11.5103 16.174 11.2804 16.0045 11.1109C15.835 10.9414 15.6051 10.8462 15.3654 10.8462H12.6538V8.13461Z" fill="#1DAB61"/>
</g>
</g>
<defs>
<clipPath id="clip0_1_9151">
<rect width="24" height="24" fill="white"/>
</clipPath>
<clipPath id="clip1_1_9151">
<rect width="24" height="24" fill="white"/>
</clipPath>
</defs>
</svg>
