<?xml version="1.0" encoding="UTF-8"?>
<svg version="1.1" viewBox="0 0 900 900" width="225" height="225" xmlns="http://www.w3.org/2000/svg">
<path transform="translate(0)" d="m0 0h900v900h-900z" fill="#F1442F"/>
<path transform="translate(0)" d="m0 0h900v900h-900zm435 75-41 4-39 8-29 9-27 11-25 12-18 10-17 11-19 14-13 11-10 9-12 11-9 9-7 8-12 14-14 19-11 17-12 21-12 24-11 27-6 19-8 32-4 23-4 40v15l2 30 4 31 6 29 7 24 9 25 9 20 10 20 15 24 12 17 13 17 11 12 7 8 19 19 11 9 16 13 19 13 19 12 14 8 26 12 33 12 25 7 19 4 26 4 19 2 16 1h18l26-2 29-4 32-7 29-9 22-9 18-8 22-12 18-11 13-9 13-10 11-9 13-12 12-11 11-12 12-14 10-13 10-14 12-19 15-29 9-20 9-25 6-20 7-31 5-40 1-9v-32l-3-30-6-36-5-20-12-36-10-23-10-20-10-17-12-18-14-19-12-14-11-12-18-18-8-7-16-13-16-11-14-9-15-9-20-11-23-10-28-10-25-7-26-5-31-4-20-1z" fill="#FDFEFD"/>
<path transform="translate(682,334)" d="m0 0 2 4 2 26v54l-4 42-6 31-6 20-6 16-8 16-9 15-11 12-7 7-17 11-12 5-14 4-13 2h-19l-14-3-15-8-13-10-12-12-11-14-11-18-7-15 2-4 19-12 17-12 19-14 25-20 16-13 8-7 12-11 8-7h2v-2l8-7 10-9 42-42 7-8 13-14z" fill="#FDFEFD"/>
<path transform="translate(217,333)" d="m0 0 6 5 7 8 9 10 7 7 7 8 29 29 8 7 17 16 10 9 11 9 9 8 22 18 18 14 18 13 33 22 1 4-10 21-8 12-8 10-10 11-8 7-10 7-6 4-16 6-5 1h-18l-16-2-17-5-19-10-10-9-2-1v-2h-2l-9-11-10-15-8-16-7-18-7-26-4-20-3-24-1-13v-68z" fill="#FDFEFD"/>
<path transform="translate(686,316)" d="m0 0 3 1 3 10 2 10h7l7 3 2 2v3l6 3v3h3l8 11 7 8 5 5 8 7 9 11 4 4 1 9-3 5h-2l1 5-3 8h-4v-2l-6-1-4-1-4 2 2 5-2 1v-2h-3l1-6-3 4-3 1 1 3h-3v2h-4v2l-3-1 1-5-1 1-6 1v2l-4 1-2-1-1 2-2-2-1-10-2-1v-3l-1-4-2 10-4 4 1 10-1 4-1 12-3 12v9l-1 3h-2l-1 14-3 5-1 8-3 5-1 7-2 3-2 9h-2l-2 9-4 9h-2l-2 6-4 6-2 4-3 4h-2l-2 4-5 5-2-1v2h-2v2h-2l-1 4-1 2h-2v2h-2v2l-6 3-4 3h-2v2l-6 1-1 2-9 4-3 2h-3v2l-2 1-1 2-4 1v-2l-8 2-4 2h-11l-6-2v2h-2v-2h-6l-3-3-17-6-15-10-13-10-14-14v-2h-2l-3-5-8-11-3-4v-3l-3-1-4-9-6-14v-5l20-12 11-7 10-7 11-8 13-10 11-9 13-11 4-3h2v-2l11-9 16-15 6-5 8-7 42-42 5-6 7-6 8-10h2l2-4 7-7 6-8h2l2-4zm-4 18-5 5-15 16-11 12-41 41-8 7-3 2v2l-4 2-12 11-8 7-9 8-14 11-16 13-20 15-14 10-21 14-10 7 2 7 10 19 10 14 11 13 10 10 14 10 12 6 14 3h19l18-3 15-5 11-6 13-9 14-14 10-15 8-16 7-17 6-19 6-29 3-24 2-24v-54l-2-26z" fill="#D5402F"/>
<path transform="translate(213,320)" d="m0 0 4 2 7 9 10 10 7 8 12 13 15 16 20 20 8 7 13 13 8 7 15 13 10 9 10 8 17 14 13 10 19 14 17 11 17 10-1 7-7 14-6 11-9 12-8 10-16 16-13 9-14 7-16 4h-18l-21-4-15-6-14-8-16-13-9-10-12-19-7-14-6-15-7-22-5-24-3-21-3-32v-50l3-44zm4 13-2 26v68l3 30 4 22 6 25 8 22 8 16 10 16 9 10 1 2h2v2l11 9 14 8 12 5 16 4 11 1h18l14-4 10-5 12-8 7-7 7-6 7-8 8-11 8-13 8-17-1-4-27-18-17-12-21-16-17-14-11-9-14-12-11-10-8-7-15-14-13-12-27-27-7-8-8-8-14-16z" fill="#240F16"/>
<path transform="translate(686,319)" d="m0 0 2 1 3 33v65l-3 36-4 24-8 30-8 21-11 21-10 14-10 11-14 11-14 8-14 5-12 3-14 2h-14l-17-4-13-7-11-8-12-10-7-8-12-16-6-9-8-16-4-11 10-7 9-5 20-14 18-13 22-18 10-8 8-7 10-9 13-11 15-14 17-17 8-7 10-10 7-8 21-21 9-11 8-9 1-2h2l2-4zm-4 15-5 5-15 16-11 12-41 41-8 7-3 2v2l-4 2-12 11-8 7-9 8-14 11-16 13-20 15-14 10-21 14-10 7 2 7 10 19 10 14 11 13 10 10 14 10 12 6 14 3h19l18-3 15-5 11-6 13-9 14-14 10-15 8-16 7-17 6-19 6-29 3-24 2-24v-54l-2-26z" fill="#291117"/>
<path transform="translate(212,317)" d="m0 0 4 2 8 9 7 8 14 15 9 10-1 2-9-9-7-8-12-13-7-8-5-5-3 46v50l4 41 5 27 5 19 7 20 7 16 11 18 7 9 8 9 16 12 15 8 11 4 21 4h18l16-4 16-8 13-10 16-16 14-19 6-11 5-10 3-7v-4l-18-10-19-13-28-21-14-12-14-11-13-12-11-9-17-16-10-10-8-7-24-24 1-2 27 27 8 7 14 14 11 9 10 9 12 11 11 8 12 11 9 6 9 8 9 6 8 6 9 6 11 7 10 6 7 4 2 4-3 10-3 5-1 4 2 1-4 5-3 7-5 9-5 5-2 5-4 3h-2l-1 2-4 1v2l-4 2-1 4h-2v2h-2v2h-2l-2 4h-2v2l-5 2v2l-6 3-2 2-6 4h-3l-2 5-10 2-4 2h-7l-5-1h-6l-8-2-1-2h-6l-9-5-11-4-16-8-16-12-12-12-10-14-7-11-7-16-5-12-3-11-3-9-4-17-4-27-3-34v-51l1-19 3-28z" fill="#D5402F"/>
</svg>
