<?xml version="1.0" encoding="UTF-8"?>
<svg version="1.1" viewBox="0 0 2048 910" width="920" height="409" xmlns="http://www.w3.org/2000/svg">
<path transform="translate(0)" d="m0 0h2048v910h-2048z" fill="#FBFBF9"/>
<path transform="translate(1016,230)" d="m0 0h15l27 3 20 4 33 11 24 12 15 10 13 10 14 12 13 13 9 11 12 17 11 19 9 20 8 24 5 24 2 17v33l-3 24-6 25-7 19-13 27-9 14-9 12-9 11-11 12-3 3h-2l-2 4-14 11-11 8-15 9-15 8-25 10-18 5-24 4-23 2-23-1-27-4-19-5-22-8-21-10-14-8-16 4-38 10-26 7h-4l1-7 12-44 8-29-1-5-11-18-10-21-9-27-6-29-1-10v-37l3-22 6-25 8-22 14-28 8-12 9-12 11-13 16-16 11-9 24-16 16-9 19-8 23-7 25-5z" fill="#4CC25E"/>
<path transform="translate(924,330)" d="m0 0h20l8 4 8 16 18 44v8l-7 12-13 15-1 2v7l7 12 9 12 12 14 13 13 16 12 15 9 21 10 8 1 8-7 13-16 8-10 1-1h8l15 6 43 21 5 5v10l-3 16-6 12-5 6-14 10-10 5-9 3-9 1h-18l-15-3-23-7-21-8-21-10-18-12-13-10-13-12-20-20-8-10-13-17-13-19-9-16-6-14-5-20v-21l4-17 7-14 7-9 9-9z" fill="#FBFBF9"/>
</svg>
